HIERARCHY
ROOT joint_0
{
	OFFSET 0.000000 0.000000 0.000000
	CHANNELS 6 Xposition Yposition Zposition Zrotation Yrotation Xrotation 
	JOINT joint_1
	{
		OFFSET 10.084412 4.114712 95.061035
		CHANNELS 3 Zrotation Yrotation Xrotation
		JOINT joint_2
		{
			OFFSET -1.615463 4.243484 87.329956
			CHANNELS 3 Zrotation Yrotation Xrotation
			JOINT joint_3
			{
				OFFSET -3.579636 4.638191 87.154053
				CHANNELS 3 Zrotation Yrotation Xrotation
				JOINT joint_4
				{
					OFFSET 5.443451 7.217075 123.562988
					CHANNELS 3 Zrotation Yrotation Xrotation
					JOINT joint_5
					{
						OFFSET 21.688065 15.141808 90.458008
						CHANNELS 3 Zrotation Yrotation Xrotation
						End Site
						{
							OFFSET 0.000000 0.000000 0.000000
						}
					}
				}
				JOINT joint_6
				{
					OFFSET 3.611374 -22.863556 70.791992
					CHANNELS 3 Zrotation Yrotation Xrotation
					JOINT joint_7
					{
						OFFSET 3.493607 -153.029137 -12.665039
						CHANNELS 3 Zrotation Yrotation Xrotation
						JOINT joint_8
						{
							OFFSET -14.929443 -32.628616 -254.032959
							CHANNELS 3 Zrotation Yrotation Xrotation
							JOINT joint_9
							{
								OFFSET 11.589401 -3.548126 -242.255005
								CHANNELS 3 Zrotation Yrotation Xrotation
								End Site
								{
									OFFSET 0.000000 0.000000 0.000000
								}
							}
						}
					}
				}
				JOINT joint_10
				{
					OFFSET 2.651962 30.943008 67.690918
					CHANNELS 3 Zrotation Yrotation Xrotation
					JOINT joint_11
					{
						OFFSET -6.172562 150.392159 -30.576904
						CHANNELS 3 Zrotation Yrotation Xrotation
						JOINT joint_12
						{
							OFFSET 15.363358 20.741959 -255.254028
							CHANNELS 3 Zrotation Yrotation Xrotation
							JOINT joint_13
							{
								OFFSET 23.282578 -11.086121 -241.182983
								CHANNELS 3 Zrotation Yrotation Xrotation
								End Site
								{
									OFFSET 0.000000 0.000000 0.000000
								}
							}
						}
					}
				}
			}
		}
	}
	JOINT joint_14
	{
		OFFSET -7.080551 -92.910816 -106.291992
		CHANNELS 3 Zrotation Yrotation Xrotation
		JOINT joint_15
		{
			OFFSET -38.248322 -6.001282 -411.906006
			CHANNELS 3 Zrotation Yrotation Xrotation
			JOINT joint_16
			{
				OFFSET -11.189407 -11.244659 -448.150986
				CHANNELS 3 Zrotation Yrotation Xrotation
				JOINT joint_17
				{
					OFFSET 169.870491 -24.631378 -80.352999
					CHANNELS 3 Zrotation Yrotation Xrotation
					End Site
					{
						OFFSET 0.000000 0.000000 0.000000
					}
				}
			}
		}
	}
	JOINT joint_18
	{
		OFFSET -2.796600 85.817772 -112.273987
		CHANNELS 3 Zrotation Yrotation Xrotation
		JOINT joint_19
		{
			OFFSET -44.395859 -8.174402 -411.255005
			CHANNELS 3 Zrotation Yrotation Xrotation
			JOINT joint_20
			{
				OFFSET -25.617508 -5.555587 -447.666992
				CHANNELS 3 Zrotation Yrotation Xrotation
				JOINT joint_21
				{
					OFFSET 163.870811 53.215703 -78.867000
					CHANNELS 3 Zrotation Yrotation Xrotation
					End Site
					{
						OFFSET 0.000000 0.000000 0.000000
					}
				}
			}
		}
	}
}
MOTION
Frames: 9
Frame Time: 0.016667
1382.533081 -50.846107 1063.858032 0.931072 -0.919902 2.167133 -0.456812 -2.401583 0.359527 -0.627852 0.429507 -0.121550 -0.569935 -0.523648 0.085755 -2.302285 5.973522 5.468485 0.000000 0.000000 0.000000 -3.418589 0.600195 0.477944 0.453296 0.213303 -2.264125 0.016916 2.119552 0.969264 0.000000 0.000000 0.000000 2.035348 1.675433 -1.013922 0.422158 1.348856 -0.914073 0.233943 -2.535361 1.264761 0.000000 0.000000 0.000000 -0.386561 -1.043947 -3.430219 -0.725820 0.957432 -0.127086 -0.687625 -0.367942 -0.377600 0.000000 0.000000 0.000000 -4.716468 -2.043610 2.017739 -4.538102 1.136369 -0.409702 -4.431122 -0.017828 -2.126221 0.000000 0.000000 0.000000 
1382.123169 -50.513374 1063.905029 0.995808 -1.132889 2.151198 -0.475957 -2.132295 0.457446 -0.631646 0.387629 -0.139533 -0.576735 -0.484227 0.095454 -2.311522 6.054944 5.441946 0.000000 0.000000 0.000000 -3.488833 0.675273 0.302967 0.363658 0.294435 -2.278099 0.027376 1.404683 0.991901 0.000000 0.000000 0.000000 1.952969 1.890676 -1.063891 0.574233 1.623088 -0.688968 0.231743 -3.620928 0.763379 0.000000 0.000000 0.000000 -0.402294 -0.933663 -3.445180 -0.745320 1.168294 -0.111310 -0.698795 -0.465426 -0.396972 0.000000 0.000000 0.000000 -4.713769 -2.237215 2.056280 -4.530670 1.882072 -0.609996 -4.434846 -0.366026 -2.014516 0.000000 0.000000 0.000000 
1381.656494 -50.103996 1063.994019 1.039047 -1.363159 2.137678 -0.481466 -1.834605 0.565814 -0.620178 0.340837 -0.160834 -0.568688 -0.437140 0.107168 -2.323176 6.140966 5.419128 0.000000 0.000000 0.000000 -3.567138 0.729827 0.130155 0.287463 0.352193 -2.333419 0.038064 0.748343 1.015530 0.000000 0.000000 0.000000 1.889827 2.138925 -1.106819 0.739942 1.928874 -0.459267 0.225831 -4.842714 0.190602 0.000000 0.000000 0.000000 -0.412152 -0.859268 -3.458552 -0.759500 1.467193 -0.111968 -0.702809 -0.572676 -0.414370 0.000000 0.000000 0.000000 -4.704078 -2.433403 2.096470 -4.515413 2.667175 -0.826581 -4.434859 -0.728405 -1.896205 0.000000 0.000000 0.000000 
1381.117310 -49.600426 1064.180054 1.023281 -1.597762 2.134993 -0.457466 -1.515403 0.672147 -0.577316 0.287349 -0.182074 -0.530351 -0.374557 0.119267 -2.338054 6.216286 5.413434 0.000000 0.000000 0.000000 -3.659205 0.731519 -0.009076 0.255442 0.348967 -2.490278 0.048822 0.301414 1.089497 0.000000 0.000000 0.000000 1.873506 2.414256 -1.137979 0.912176 2.252276 -0.237932 0.212909 -6.181256 -0.459684 0.000000 0.000000 0.000000 -0.404396 -0.876590 -3.471917 -0.757599 1.916688 -0.144185 -0.688079 -0.686000 -0.423792 0.000000 0.000000 0.000000 -4.679839 -2.603853 2.125507 -4.486177 3.418615 -1.036288 -4.423608 -1.071983 -1.778398 0.000000 0.000000 0.000000 
1380.500488 -49.016006 1064.442993 0.960614 -1.848547 2.140902 -0.410050 -1.161216 0.781656 -0.508364 0.226729 -0.203334 -0.466895 -0.299485 0.131347 -2.356777 6.287866 5.421748 0.000000 0.000000 0.000000 -3.765501 0.693370 -0.133182 0.252703 0.300137 -2.720881 0.059448 -0.013737 1.195656 0.000000 0.000000 0.000000 1.889851 2.723744 -1.167813 1.094387 2.605035 0.001045 0.189921 -7.680683 -1.211369 0.000000 0.000000 0.000000 -0.382680 -0.963869 -3.485240 -0.743243 2.504453 -0.201542 -0.658322 -0.808343 -0.427417 0.000000 0.000000 0.000000 -4.642330 -2.767854 2.151067 -4.443254 4.194160 -1.257379 -4.402797 -1.423802 -1.653048 0.000000 0.000000 0.000000 
1379.922363 -48.326260 1064.686035 0.917792 -2.085442 2.150697 -0.358914 -0.838786 0.883878 -0.437216 0.169020 -0.223131 -0.400965 -0.227457 0.143344 -2.379529 6.372277 5.434009 0.000000 0.000000 0.000000 -3.864292 0.661523 -0.243156 0.250727 0.257519 -2.963078 0.066345 -0.267262 1.245107 0.000000 0.000000 0.000000 1.914588 3.039710 -1.185979 1.254176 2.955401 0.211658 0.161308 -9.068822 -1.906980 0.000000 0.000000 0.000000 -0.368932 -1.038693 -3.502630 -0.735021 3.047980 -0.271391 -0.636766 -0.905945 -0.431313 0.000000 0.000000 0.000000 -4.611512 -2.897653 2.161178 -4.407922 4.871544 -1.456278 -4.389333 -1.717483 -1.550032 0.000000 0.000000 0.000000 
1379.472046 -47.491379 1064.838989 0.939866 -2.292988 2.159945 -0.314259 -0.592242 0.971729 -0.377167 0.122791 -0.240653 -0.344912 -0.171811 0.152047 -2.409593 6.493282 5.447568 0.000000 0.000000 0.000000 -3.943046 0.669538 -0.338031 0.228798 0.258503 -3.171182 0.066129 -0.497614 1.160779 0.000000 0.000000 0.000000 1.928780 3.354196 -1.160594 1.376253 3.292849 0.338375 0.133613 -10.196017 -2.442305 0.000000 0.000000 0.000000 -0.379496 -1.035552 -3.526549 -0.746417 3.416400 -0.347189 -0.640069 -0.956321 -0.440083 0.000000 0.000000 0.000000 -4.599518 -2.971767 2.143276 -4.394001 5.374533 -1.606457 -4.392487 -1.917601 -1.485566 0.000000 0.000000 0.000000 
1379.103516 -46.520432 1064.938965 1.001497 -2.483473 2.171418 -0.269236 -0.395052 1.046368 -0.319722 0.084078 -0.254721 -0.290786 -0.126373 0.158412 -2.446487 6.644690 5.464154 0.000000 0.000000 0.000000 -4.007198 0.700572 -0.417332 0.197204 0.284366 -3.369733 0.060091 -0.680812 0.976228 0.000000 0.000000 0.000000 1.943338 3.678761 -1.094973 1.472721 3.630012 0.400307 0.104749 -11.169381 -2.879970 0.000000 0.000000 0.000000 -0.405851 -0.984954 -3.556945 -0.770297 3.679352 -0.433613 -0.659265 -0.972466 -0.451375 0.000000 0.000000 0.000000 -4.598875 -3.001343 2.100779 -4.393478 5.752476 -1.721842 -4.404989 -2.054404 -1.446325 0.000000 0.000000 0.000000 
1378.771973 -45.512718 1065.004028 1.096296 -2.634270 2.188439 -0.229719 -0.255383 1.117431 -0.271613 0.053316 -0.270151 -0.244989 -0.089008 0.167655 -2.480692 6.776998 5.481154 0.000000 0.000000 0.000000 -4.065870 0.742601 -0.482270 0.167183 0.320917 -3.580338 0.052894 -0.830832 0.778131 0.000000 0.000000 0.000000 1.962392 3.970993 -1.040384 1.534331 3.926391 0.442958 0.076144 -11.858256 -3.199171 0.000000 0.000000 0.000000 -0.440358 -0.938455 -3.597440 -0.802311 3.883588 -0.517683 -0.687456 -0.993556 -0.467625 0.000000 0.000000 0.000000 -4.611631 -2.993466 2.047689 -4.405160 5.969460 -1.813766 -4.425216 -2.119884 -1.434187 0.000000 0.000000 0.000000 
